# xmcd
#
# Track frame offsets:
#	150
#	17245
#	42373
#	93678
#	134963
#	164730
#	192820
#	226184
#
# Disc length: 3334 seconds
#
# Revision: 0
# Processed by: cddbd v1.5.2PL0 Copyright (c) Steve Scherf et al.
# Submitted via: audiograbber 1.83.01
#
DISCID=710d0408
DTITLE=Grateful Dead - 92-03-21 Copps Coliseum, Hamilton, Ontario, Canada
DYEAR=1900
DGENRE=
TTITLE0=Help On The Way
TTITLE1=Slipknot!
TTITLE2=Franklin's Tower
TTITLE3=Little Red Rooster
TTITLE4=Peggy-O
TTITLE5=Queen Jane Approximately
TTITLE6=So Many Roads
TTITLE7=Box Of Rain
EXTD=
EXTT0=
EXTT1=
EXTT2=
EXTT3=
EXTT4=
EXTT5=
EXTT6=
EXTT7=
PLAYORDER=
